<svg xmlns="http://www.w3.org/2000/svg" viewBox="0 0 1200 675" preserveAspectRatio="xMidYMid slice">
  <defs>
    <linearGradient id="bg" x1="0" y1="0" x2="1" y2="1">
      <stop offset="0" stop-color="#f6ead6"/>
      <stop offset="1" stop-color="#e0c9a1"/>
    </linearGradient>
  </defs>
  <rect width="1200" height="675" fill="url(#bg)"/>
  <g>
    <rect x="300" y="140" width="260" height="380" rx="4" fill="#faf8f5" stroke="#a0522d" stroke-width="1.5"/>
    <rect x="340" y="180" width="180" height="2" fill="#a0522d" opacity="0.5"/>
    <rect x="340" y="210" width="180" height="2" fill="#a0522d" opacity="0.35"/>
    <rect x="340" y="240" width="140" height="2" fill="#a0522d" opacity="0.35"/>
    <rect x="340" y="270" width="180" height="2" fill="#a0522d" opacity="0.25"/>
    <rect x="340" y="300" width="120" height="2" fill="#a0522d" opacity="0.25"/>

    <rect x="600" y="140" width="260" height="380" rx="4" fill="#faf8f5" stroke="#a0522d" stroke-width="1.5" opacity="0.85"/>
    <rect x="640" y="180" width="180" height="2" fill="#a0522d" opacity="0.4"/>
    <rect x="640" y="210" width="140" height="2" fill="#a0522d" opacity="0.3"/>
    <rect x="640" y="240" width="180" height="2" fill="#a0522d" opacity="0.3"/>
    <rect x="640" y="270" width="120" height="2" fill="#a0522d" opacity="0.2"/>

    <circle cx="430" cy="430" r="28" fill="none" stroke="#a0522d" stroke-width="1.5" opacity="0.75"/>
    <circle cx="730" cy="430" r="40" fill="none" stroke="#a0522d" stroke-width="1.5" opacity="0.55"/>
    <circle cx="580" cy="470" r="18" fill="none" stroke="#a0522d" stroke-width="1.5" opacity="0.45"/>
  </g>
</svg>
